<?xml version="1.0" encoding="utf-8"?>
<!-- Generator: Adobe Illustrator 22.0.1, SVG Export Plug-In . SVG Version: 6.00 Build 0)  -->
<svg version="1.1" id="Layer_1" xmlns="http://www.w3.org/2000/svg" xmlns:xlink="http://www.w3.org/1999/xlink" x="0px" y="0px"
	 viewBox="0 0 300 300" style="enable-background:new 0 0 300 300;" xml:space="preserve">
<style type="text/css">
	.st0{fill:#FFFFFF;}
	.st1{fill:none;stroke:#CCCCCC;stroke-width:0.5;stroke-miterlimit:10;}
	.st2{fill:#CCCCCC;}
	.st3{fill:#CCCCCC;stroke:#CCCCCC;stroke-linecap:round;stroke-miterlimit:10;}
</style>
<g>
	<g>
		<rect x="-337" y="-179" class="st0" width="375" height="83"/>
		<line class="st1" x1="-337" y1="-178.5" x2="38" y2="-178.5"/>
	</g>
	<path d="M-298.3-149.6c-0.7,0.7-1.4,1.3-2.1,1.9c-0.4,0.4-0.7,0.4-0.9,0.1c-0.2-0.3-0.2-0.6,0.2-0.9c3-2.8,6-5.5,8.9-8.3
		c0.3-0.2,0.5-0.5,0.8-0.7c0.8-0.7,1.6-0.7,2.4,0c1.9,1.7,3.7,3.5,5.6,5.2c1.3,1.2,2.6,2.4,3.9,3.6c0.1,0.1,0.3,0.3,0.4,0.4
		c0.2,0.2,0.2,0.5,0,0.7c-0.2,0.2-0.5,0.2-0.7,0c-0.6-0.6-1.2-1.2-1.9-1.7c-0.1-0.1-0.2-0.2-0.4-0.3c0,0.2,0,0.4,0,0.5
		c0,2.9,0,5.8,0,8.7c0,1.5-0.8,2.3-2.3,2.3c-3.9,0-7.8,0-11.6,0c-1.2,0-2-0.6-2.3-1.6c-0.1-0.3-0.1-0.5-0.1-0.8c0-2.9,0-5.8,0-8.7
		C-298.3-149.2-298.3-149.3-298.3-149.6z M-287.3-139c1.1,0,2.2,0,3.2,0c0.7,0,1-0.5,1-1.2c0-3.3,0-6.7,0-10c0-0.2-0.1-0.4-0.2-0.5
		c-2.1-2-4.2-3.9-6.3-5.9c-0.5-0.4-0.7-0.4-1.2,0c-2.1,1.9-4.2,3.9-6.3,5.8c-0.1,0.1-0.2,0.4-0.2,0.5c0,3.3,0,6.6,0,10
		c0,0.8,0.4,1.2,1.2,1.2c0.6,0,1.2,0,1.8,0c0.4,0,0.8,0,1.2,0c0-0.2,0-0.3,0-0.5c0-1.5,0-3,0-4.5c0-0.5,0.2-0.7,0.7-0.7
		c1.4,0,2.8,0,4.2,0c0.5,0,0.7,0.2,0.7,0.7c0,1.5,0,3,0,4.4C-287.3-139.4-287.3-139.3-287.3-139z M-291.9-139.1c1.2,0,2.3,0,3.5,0
		c0-1.5,0-3.1,0-4.6c-1.2,0-2.3,0-3.5,0C-291.9-142.1-291.9-140.6-291.9-139.1z"/>
	<path class="st2" d="M-102.7-155.3c0.6-1,1.1-2,1.7-3c0.1-0.2,0.3-0.4,0.5-0.6c0.9-0.8,1.9-0.8,2.8,0c0.5,0.4,0.9,1,1.3,1.5
		c0.8,1.2,0.7,2.1-0.5,3.3c0.7,0,1.3,0,1.9,0c0.6,0,1.3,0,1.9,0c0.4,0,0.5,0.2,0.5,0.5c0,1.3,0,2.5,0,3.8c0,0.4-0.2,0.5-0.5,0.5
		c-0.2,0-0.4,0-0.7,0c0,0.2,0,0.4,0,0.6c0,3.5,0,7.1,0,10.6c0,1.2-0.4,1.5-1.5,1.5c-2.8,0-5.7,0-8.5,0c-2,0-4.1,0-6.1,0
		c-1,0-1.4-0.4-1.4-1.4c0-3.6,0-7.2,0-10.7c0-0.2,0-0.4,0-0.6c-0.2,0-0.3,0-0.4,0c-0.8,0-0.8,0-0.8-0.9c0-1.1,0-2.1,0-3.2
		c0-0.7,0.1-0.8,0.7-0.8c1.1,0,2.3,0,3.5,0c-0.1-0.1-0.2-0.2-0.3-0.3c-0.7-0.7-0.9-1.4-0.6-2.3c0.4-1,1-1.7,1.8-2.3
		c0.9-0.7,1.9-0.5,2.7,0.3c0.9,0.9,1.4,2,1.9,3.1C-102.8-155.5-102.7-155.4-102.7-155.3z M-105.4-137.5c0-3.9,0-7.8,0-11.7
		c-1.6,0-3.2,0-4.8,0c-0.1,0-0.3,0.2-0.3,0.4c0,3.6,0,7.3,0,10.9c0,0.4,0.2,0.5,0.5,0.4c0.8,0,1.6,0,2.4,0
		C-106.8-137.5-106.1-137.5-105.4-137.5z M-99.8-137.6c0.2,0,0.3,0,0.4,0c1.3,0,2.7,0,4,0c0.4,0,0.6-0.1,0.6-0.6c0-3.6,0-7.1,0-10.7
		c0-0.2,0-0.3,0-0.5c-1.7,0-3.3,0-5,0C-99.8-145.3-99.8-141.5-99.8-137.6z M-104.4-149.3c0,3.9,0,7.8,0,11.7c1,0,2,0,2.9,0
		c0.4,0,0.6-0.1,0.6-0.6c0-3.5,0-7.1,0-10.6c0-0.2,0-0.3,0-0.5C-102.1-149.3-103.2-149.3-104.4-149.3z M-111.6-150.3
		c2.1,0,4.2,0,6.2,0c0-1,0-1.9,0-2.8c-2.1,0-4.2,0-6.2,0C-111.6-152.2-111.6-151.2-111.6-150.3z M-93.6-153.1c-2.1,0-4.2,0-6.2,0
		c0,1,0,1.9,0,2.8c2.1,0,4.2,0,6.2,0C-93.6-151.3-93.6-152.2-93.6-153.1z M-101.9-154.2c0.4,0,0.7,0,1.1,0c1.1-0.1,2.3-0.2,3.3-0.8
		c0.7-0.4,0.9-0.9,0.5-1.6c-0.3-0.5-0.7-1-1.1-1.4c-0.6-0.6-1.2-0.6-1.8,0C-100.9-156.9-101.4-155.6-101.9-154.2z M-103.3-154.2
		c-0.4-1.3-0.9-2.6-1.8-3.7c-0.1-0.1-0.2-0.2-0.4-0.4c-0.5-0.4-0.9-0.4-1.4,0c-0.5,0.4-0.9,0.9-1.2,1.5c-0.5,0.8-0.3,1.4,0.6,1.8
		C-106.2-154.2-104.8-154.2-103.3-154.2z M-100.8-150.3c0-0.7,0-1.3,0-1.9c0-1,0-1-0.9-1c-0.9,0-1.7,0-2.6,0c0,1,0,1.9,0,2.9
		C-103.2-150.3-102-150.3-100.8-150.3z"/>
	<g>
		<path class="st2" d="M-14-154.8c-0.1-0.2-0.2-0.4-0.3-0.6c-0.3-0.8-0.1-1.6,0.7-2c0.4-0.2,0.9-0.4,1.3-0.6
			c0.8-0.3,1.5,0.1,1.8,0.8c0.1,0.2,0.2,0.5,0.3,0.7c0.7,0,1.4,0,2.1,0c0.1,0,0.3-0.1,0.3-0.2c0.1-0.1,0.1-0.3,0.2-0.5
			c0.3-0.8,1.1-1.1,1.8-0.8c0.4,0.1,0.8,0.3,1.2,0.5c0.8,0.4,1.1,1,0.8,1.8c-0.1,0.3-0.2,0.5-0.3,0.8c0.5,0.5,1,1,1.5,1.5
			c0.1,0.1,0.3,0.1,0.4,0.1c0.2-0.1,0.4-0.2,0.7-0.2c0.7-0.2,1.4,0.1,1.7,0.8c0.2,0.4,0.4,0.8,0.5,1.3c0.3,0.9,0,1.6-0.9,2
			c-0.2,0.1-0.4,0.2-0.6,0.2c0,0.8,0,1.6,0,2.4c0.2,0.1,0.5,0.2,0.7,0.3c0.7,0.3,1,1,0.8,1.7c-0.2,0.5-0.4,1.1-0.7,1.6
			c-0.3,0.6-1.1,0.9-1.8,0.6c-0.6-0.3-1-0.2-1.3,0.3c-0.3,0.4-0.6,0.8-0.9,1.2c-0.1,0-0.1-0.1-0.2-0.1c0.1,0.2,0.2,0.5,0.3,0.7
			c0.3,0.8,0,1.5-0.7,1.8c-0.4,0.2-0.9,0.4-1.4,0.6c-0.8,0.3-1.5-0.1-1.8-0.8c-0.1-0.2-0.2-0.5-0.3-0.7c-0.7,0-1.4,0-2.1,0
			c-0.1,0-0.3,0.1-0.3,0.2c-0.1,0.1-0.1,0.3-0.2,0.5c-0.3,0.8-1.1,1.1-1.9,0.8c-0.4-0.1-0.8-0.3-1.2-0.5c-0.8-0.4-1.2-1.1-0.8-2
			c0.1-0.2,0.2-0.5,0.3-0.7c-0.5-0.5-1-1-1.5-1.5c-0.1-0.1-0.3-0.1-0.4-0.1c-0.2,0.1-0.4,0.2-0.7,0.2c-0.7,0.2-1.4-0.1-1.7-0.8
			c-0.2-0.4-0.4-0.8-0.5-1.3c-0.3-0.9,0-1.6,0.8-2c0.2-0.1,0.4-0.2,0.6-0.3c0-0.7,0-1.4,0-2.1c0-0.1-0.1-0.3-0.2-0.3
			c-0.2-0.1-0.4-0.2-0.6-0.3c-0.6-0.3-0.9-1-0.7-1.7c0.2-0.5,0.4-1.1,0.7-1.6c0.3-0.6,1.1-0.9,1.8-0.6c0.6,0.3,1,0.2,1.3-0.3
			c0.3-0.4,0.6-0.8,0.9-1.2C-14.1-154.8-14-154.8-14-154.8z M-5.1-141.4c0.1-0.2,0.2-0.3,0.3-0.5c0.6-0.7,1.3-1.3,1.9-1.9
			c0.3-0.3,0.5-0.4,0.8-0.2c0.3,0.1,0.6,0.3,1,0.4c0.3,0.1,0.4,0.1,0.5-0.2c0.1-0.4,0.3-0.7,0.4-1.1c0.1-0.3,0-0.4-0.2-0.5
			c-0.4-0.1-0.7-0.3-1-0.5c-0.3-0.1-0.4-0.4-0.4-0.7c0-0.9,0-1.8,0-2.7c0-0.4,0.1-0.6,0.5-0.8c1.4-0.6,1.3-0.6,0.7-1.9
			c-0.1-0.3-0.3-0.3-0.5-0.2c-0.3,0.1-0.6,0.2-0.9,0.4c-0.4,0.2-0.7,0.1-1-0.3c-0.6-0.6-1.2-1.2-1.8-1.8c-0.3-0.3-0.4-0.5-0.2-0.9
			c0.1-0.3,0.3-0.6,0.4-1c0-0.1,0-0.4-0.1-0.5c-0.5-0.2-1-0.4-1.5-0.6c-0.2,0.4-0.3,0.7-0.5,1.1c0,0,0,0,0,0
			c-0.1,0.5-0.4,0.6-0.9,0.6c-0.6-0.1-1.2-0.1-1.8-0.1c-1.5,0.2-1.3,0.1-1.8-1.2c-0.2-0.4-0.3-0.5-0.8-0.3c-1.2,0.5-1.2,0.5-0.7,1.7
			c0.2,0.5,0.1,0.8-0.3,1.1c-0.6,0.5-1.2,1.1-1.7,1.7c-0.3,0.3-0.6,0.5-1,0.3c-1.4-0.5-1.4-0.5-1.9,0.9c-0.1,0.3,0,0.4,0.2,0.6
			c0.3,0.1,0.6,0.2,0.9,0.4c0.4,0.1,0.5,0.4,0.5,0.8c0,0.9,0,1.7,0,2.6c0,0.4-0.1,0.7-0.5,0.8c-0.3,0.1-0.7,0.2-1,0.4
			c-0.1,0.1-0.2,0.3-0.2,0.5c0.1,0.4,0.3,0.8,0.5,1.1c0.1,0.1,0.3,0.2,0.5,0.2c0.3-0.1,0.7-0.2,1-0.4c0.4-0.2,0.7-0.1,1,0.3
			c0.6,0.6,1.2,1.2,1.8,1.8c0.3,0.3,0.4,0.6,0.3,1c-0.5,1.4-0.5,1.4,0.9,1.9c0,0,0,0,0,0c0.2-0.1,0.4-0.1,0.5-0.2
			c0.2-0.3,0.3-0.6,0.4-0.9c0.1-0.4,0.4-0.6,0.9-0.5c0.8,0,1.7,0,2.5,0c0.5,0,0.7,0.1,0.9,0.6c0.5,1.3,0.5,1.2,1.8,0.7
			c0.4-0.2,0.4-0.3,0.3-0.7C-4.8-140.6-4.9-141-5.1-141.4z"/>
		<path class="st2" d="M-8.9-143.7c-2.5-0.1-4.3-2-4.3-4.4c0.1-2.3,2.1-4.3,4.4-4.2c2.4,0.1,4.3,2.1,4.2,4.4
			C-4.6-145.5-6.5-143.6-8.9-143.7z M-8.8-144.8c1.7,0,3.1-1.5,3.1-3.2c0-1.8-1.5-3.2-3.2-3.2c-1.7,0-3.1,1.4-3.1,3.2
			C-12-146.2-10.6-144.8-8.8-144.8z"/>
	</g>
	<g>
		<g>
			<line class="st3" x1="-202.4" y1="-143.5" x2="-190.4" y2="-143.5"/>
			<line class="st3" x1="-196.4" y1="-149.5" x2="-196.4" y2="-137.5"/>
		</g>
		<g>
			<line class="st3" x1="-207" y1="-155.5" x2="-201" y2="-155.5"/>
			<line class="st3" x1="-204" y1="-158.5" x2="-204" y2="-152.5"/>
		</g>
		<g>
			<line class="st3" x1="-192" y1="-153.5" x2="-184" y2="-153.5"/>
			<line class="st3" x1="-188" y1="-157.5" x2="-188" y2="-149.5"/>
		</g>
	</g>
	<g>
		<text transform="matrix(1 0 0 1 -306.2412 -121)" style="font-family:'HelveticaNeue'; font-size:12px;">Home</text>
	</g>
	<g>
		<text transform="matrix(1 0 0 1 -217.3872 -121)" class="st2" style="font-family:'HelveticaNeue'; font-size:12px;">Benefits</text>
	</g>
	<g>
		<text transform="matrix(1 0 0 1 -126.2827 -121)" class="st2" style="font-family:'HelveticaNeue'; font-size:12px;">Rewards</text>
	</g>
	<g>
		<text transform="matrix(1 0 0 1 -30.8765 -121)" class="st2" style="font-family:'HelveticaNeue'; font-size:12px;">Settings</text>
	</g>
</g>
<g>
	<g>
		<g>
			<line x1="64.1" y1="206.3" x2="214.1" y2="206.3"/>
			<path d="M214.1,212.5h-150c-3.4,0-6.2-2.8-6.2-6.2s2.8-6.2,6.2-6.2h150c3.4,0,6.2,2.8,6.2,6.2S217.5,212.5,214.1,212.5z"/>
		</g>
		<g>
			<line x1="139.1" y1="131.2" x2="139.1" y2="281.3"/>
			<path d="M139.1,287.5c-3.4,0-6.2-2.8-6.2-6.2v-150c0-3.4,2.8-6.2,6.2-6.2c3.4,0,6.2,2.8,6.2,6.2v150
				C145.3,284.7,142.5,287.5,139.1,287.5z"/>
		</g>
	</g>
	<g>
		<g>
			<line x1="6.2" y1="56.2" x2="81.2" y2="56.2"/>
			<path d="M81.2,62.5h-75c-3.4,0-6.2-2.8-6.2-6.2C0,52.8,2.8,50,6.2,50h75c3.4,0,6.2,2.8,6.2,6.2C87.5,59.7,84.7,62.5,81.2,62.5z"
				/>
		</g>
		<g>
			<line x1="43.7" y1="18.7" x2="43.7" y2="93.7"/>
			<path d="M43.7,100c-3.4,0-6.2-2.8-6.2-6.2v-75c0-3.4,2.8-6.2,6.2-6.2s6.2,2.8,6.2,6.2v75C50,97.2,47.2,100,43.7,100z"/>
		</g>
	</g>
	<g>
		<g>
			<line x1="193.8" y1="81.2" x2="293.8" y2="81.2"/>
			<path d="M293.8,87.5h-100c-3.4,0-6.2-2.8-6.2-6.2s2.8-6.2,6.2-6.2h100c3.4,0,6.2,2.8,6.2,6.2S297.2,87.5,293.8,87.5z"/>
		</g>
		<g>
			<line x1="243.8" y1="31.2" x2="243.8" y2="131.2"/>
			<path d="M243.8,137.5c-3.4,0-6.2-2.8-6.2-6.2v-100c0-3.4,2.8-6.2,6.2-6.2c3.4,0,6.2,2.8,6.2,6.2v100
				C250,134.7,247.2,137.5,243.8,137.5z"/>
		</g>
	</g>
</g>
<path d="M-336.8,117c-10,9.2-18.7,17.3-27.5,25.4c-5.2,4.8-9.1,5.3-12.1,1.8c-2.9-3.4-2.1-7.4,2.6-11.8
	c39.7-36.9,79.4-73.7,119-110.5c3.5-3.2,6.9-6.5,10.4-9.7c10.7-9.8,21.7-9.9,32.4,0c24.9,23.1,49.7,46.2,74.5,69.3
	c17.3,16.1,34.6,32.1,51.9,48.2c1.9,1.7,3.8,3.3,5.4,5.3c2.6,3.1,2.8,6.6-0.2,9.6c-2.9,2.9-6.4,2.9-9.5,0
	c-8.3-7.6-16.6-15.3-24.9-23c-1.3-1.2-2.6-2.4-4.9-4.5c0,3.1,0,4.9,0,6.7c0,38.8,0,77.6,0,116.4c0,19.7-11.3,31-31.1,31.1
	c-51.6,0.1-103.2,0.1-154.9,0c-16.2,0-26.9-7.6-30.3-21.5c-0.8-3.4-0.9-7-0.9-10.5c-0.1-38.5,0-76.9,0-115.4
	C-336.8,122-336.8,120.2-336.8,117z M-190.6,257.3c14.8,0,28.8,0.4,42.8-0.1c9.2-0.3,14-6.3,14-15.8c0-44.4,0.1-88.8-0.1-133.2
	c0-2.5-1.4-5.6-3.2-7.3c-27.8-26.1-55.8-52.1-83.7-78c-6.4-6-8.8-5.9-15.3,0.2c-27.8,25.9-55.7,51.7-83.4,77.6
	c-1.8,1.7-3.3,4.8-3.3,7.2c-0.2,44.2-0.2,88.4-0.1,132.7c0,10.9,5.6,16.5,16.5,16.6c8.1,0.1,16.2,0,24.3,0c5.3,0,10.7,0,16.4,0
	c0-2.5,0-4.3,0-6.2c0-20.1,0-40.2,0-60.3c0-7.1,2.3-9.3,9.4-9.3c18.7,0,37.5,0,56.2,0c7.1,0,9.4,2.2,9.4,9.4c0,19.7,0,39.5,0,59.2
	C-190.6,252.3-190.6,254.5-190.6,257.3z M-251.5,257c15.9,0,31.2,0,46.5,0c0-20.6,0-40.9,0-61.1c-15.7,0-31,0-46.5,0
	C-251.5,216.4-251.5,236.5-251.5,257z"/>
</svg>
