<?xml version="1.0" encoding="utf-8"?>
<!-- Generator: Adobe Illustrator 22.0.1, SVG Export Plug-In . SVG Version: 6.00 Build 0)  -->
<svg version="1.1" id="Layer_1" xmlns="http://www.w3.org/2000/svg" xmlns:xlink="http://www.w3.org/1999/xlink" x="0px" y="0px"
	 viewBox="0 0 300 300" style="enable-background:new 0 0 300 300;" xml:space="preserve">
<style type="text/css">
	.st0{fill:#FFFFFF;}
	.st1{fill:none;stroke:#CCCCCC;stroke-width:0.5;stroke-miterlimit:10;}
	.st2{fill:#CCCCCC;}
	.st3{fill:#CCCCCC;stroke:#CCCCCC;stroke-linecap:round;stroke-miterlimit:10;}
</style>
<g>
	<g>
		<rect x="-337" y="-179" class="st0" width="375" height="83"/>
		<line class="st1" x1="-337" y1="-178.5" x2="38" y2="-178.5"/>
	</g>
	<path d="M-298.3-149.6c-0.7,0.7-1.4,1.3-2.1,1.9c-0.4,0.4-0.7,0.4-0.9,0.1c-0.2-0.3-0.2-0.6,0.2-0.9c3-2.8,6-5.5,8.9-8.3
		c0.3-0.2,0.5-0.5,0.8-0.7c0.8-0.7,1.6-0.7,2.4,0c1.9,1.7,3.7,3.5,5.6,5.2c1.3,1.2,2.6,2.4,3.9,3.6c0.1,0.1,0.3,0.3,0.4,0.4
		c0.2,0.2,0.2,0.5,0,0.7c-0.2,0.2-0.5,0.2-0.7,0c-0.6-0.6-1.2-1.2-1.9-1.7c-0.1-0.1-0.2-0.2-0.4-0.3c0,0.2,0,0.4,0,0.5
		c0,2.9,0,5.8,0,8.7c0,1.5-0.8,2.3-2.3,2.3c-3.9,0-7.8,0-11.6,0c-1.2,0-2-0.6-2.3-1.6c-0.1-0.3-0.1-0.5-0.1-0.8c0-2.9,0-5.8,0-8.7
		C-298.3-149.2-298.3-149.3-298.3-149.6z M-287.3-139c1.1,0,2.2,0,3.2,0c0.7,0,1-0.5,1-1.2c0-3.3,0-6.7,0-10c0-0.2-0.1-0.4-0.2-0.5
		c-2.1-2-4.2-3.9-6.3-5.9c-0.5-0.4-0.7-0.4-1.2,0c-2.1,1.9-4.2,3.9-6.3,5.8c-0.1,0.1-0.2,0.4-0.2,0.5c0,3.3,0,6.6,0,10
		c0,0.8,0.4,1.2,1.2,1.2c0.6,0,1.2,0,1.8,0c0.4,0,0.8,0,1.2,0c0-0.2,0-0.3,0-0.5c0-1.5,0-3,0-4.5c0-0.5,0.2-0.7,0.7-0.7
		c1.4,0,2.8,0,4.2,0c0.5,0,0.7,0.2,0.7,0.7c0,1.5,0,3,0,4.4C-287.3-139.4-287.3-139.3-287.3-139z M-291.9-139.1c1.2,0,2.3,0,3.5,0
		c0-1.5,0-3.1,0-4.6c-1.2,0-2.3,0-3.5,0C-291.9-142.1-291.9-140.6-291.9-139.1z"/>
	<path class="st2" d="M-102.7-155.3c0.6-1,1.1-2,1.7-3c0.1-0.2,0.3-0.4,0.5-0.6c0.9-0.8,1.9-0.8,2.8,0c0.5,0.4,0.9,1,1.3,1.5
		c0.8,1.2,0.7,2.1-0.5,3.3c0.7,0,1.3,0,1.9,0c0.6,0,1.3,0,1.9,0c0.4,0,0.5,0.2,0.5,0.5c0,1.3,0,2.5,0,3.8c0,0.4-0.2,0.5-0.5,0.5
		c-0.2,0-0.4,0-0.7,0c0,0.2,0,0.4,0,0.6c0,3.5,0,7.1,0,10.6c0,1.2-0.4,1.5-1.5,1.5c-2.8,0-5.7,0-8.5,0c-2,0-4.1,0-6.1,0
		c-1,0-1.4-0.4-1.4-1.4c0-3.6,0-7.2,0-10.7c0-0.2,0-0.4,0-0.6c-0.2,0-0.3,0-0.4,0c-0.8,0-0.8,0-0.8-0.9c0-1.1,0-2.1,0-3.2
		c0-0.7,0.1-0.8,0.7-0.8c1.1,0,2.3,0,3.5,0c-0.1-0.1-0.2-0.2-0.3-0.3c-0.7-0.7-0.9-1.4-0.6-2.3c0.4-1,1-1.7,1.8-2.3
		c0.9-0.7,1.9-0.5,2.7,0.3c0.9,0.9,1.4,2,1.9,3.1C-102.8-155.5-102.7-155.4-102.7-155.3z M-105.4-137.5c0-3.9,0-7.8,0-11.7
		c-1.6,0-3.2,0-4.8,0c-0.1,0-0.3,0.2-0.3,0.4c0,3.6,0,7.3,0,10.9c0,0.4,0.2,0.5,0.5,0.4c0.8,0,1.6,0,2.4,0
		C-106.8-137.5-106.1-137.5-105.4-137.5z M-99.8-137.6c0.2,0,0.3,0,0.4,0c1.3,0,2.7,0,4,0c0.4,0,0.6-0.1,0.6-0.6c0-3.6,0-7.1,0-10.7
		c0-0.2,0-0.3,0-0.5c-1.7,0-3.3,0-5,0C-99.8-145.3-99.8-141.5-99.8-137.6z M-104.4-149.3c0,3.9,0,7.8,0,11.7c1,0,2,0,2.9,0
		c0.4,0,0.6-0.1,0.6-0.6c0-3.5,0-7.1,0-10.6c0-0.2,0-0.3,0-0.5C-102.1-149.3-103.2-149.3-104.4-149.3z M-111.6-150.3
		c2.1,0,4.2,0,6.2,0c0-1,0-1.9,0-2.8c-2.1,0-4.2,0-6.2,0C-111.6-152.2-111.6-151.2-111.6-150.3z M-93.6-153.1c-2.1,0-4.2,0-6.2,0
		c0,1,0,1.9,0,2.8c2.1,0,4.2,0,6.2,0C-93.6-151.3-93.6-152.2-93.6-153.1z M-101.9-154.2c0.4,0,0.7,0,1.1,0c1.1-0.1,2.3-0.2,3.3-0.8
		c0.7-0.4,0.9-0.9,0.5-1.6c-0.3-0.5-0.7-1-1.1-1.4c-0.6-0.6-1.2-0.6-1.8,0C-100.9-156.9-101.4-155.6-101.9-154.2z M-103.3-154.2
		c-0.4-1.3-0.9-2.6-1.8-3.7c-0.1-0.1-0.2-0.2-0.4-0.4c-0.5-0.4-0.9-0.4-1.4,0c-0.5,0.4-0.9,0.9-1.2,1.5c-0.5,0.8-0.3,1.4,0.6,1.8
		C-106.2-154.2-104.8-154.2-103.3-154.2z M-100.8-150.3c0-0.7,0-1.3,0-1.9c0-1,0-1-0.9-1c-0.9,0-1.7,0-2.6,0c0,1,0,1.9,0,2.9
		C-103.2-150.3-102-150.3-100.8-150.3z"/>
	<g>
		<path class="st2" d="M-14-154.8c-0.1-0.2-0.2-0.4-0.3-0.6c-0.3-0.8-0.1-1.6,0.7-2c0.4-0.2,0.9-0.4,1.3-0.6
			c0.8-0.3,1.5,0.1,1.8,0.8c0.1,0.2,0.2,0.5,0.3,0.7c0.7,0,1.4,0,2.1,0c0.1,0,0.3-0.1,0.3-0.2c0.1-0.1,0.1-0.3,0.2-0.5
			c0.3-0.8,1.1-1.1,1.8-0.8c0.4,0.1,0.8,0.3,1.2,0.5c0.8,0.4,1.1,1,0.8,1.8c-0.1,0.3-0.2,0.5-0.3,0.8c0.5,0.5,1,1,1.5,1.5
			c0.1,0.1,0.3,0.1,0.4,0.1c0.2-0.1,0.4-0.2,0.7-0.2c0.7-0.2,1.4,0.1,1.7,0.8c0.2,0.4,0.4,0.8,0.5,1.3c0.3,0.9,0,1.6-0.9,2
			c-0.2,0.1-0.4,0.2-0.6,0.2c0,0.8,0,1.6,0,2.4c0.2,0.1,0.5,0.2,0.7,0.3c0.7,0.3,1,1,0.8,1.7c-0.2,0.5-0.4,1.1-0.7,1.6
			c-0.3,0.6-1.1,0.9-1.8,0.6c-0.6-0.3-1-0.2-1.3,0.3c-0.3,0.4-0.6,0.8-0.9,1.2c-0.1,0-0.1-0.1-0.2-0.1c0.1,0.2,0.2,0.5,0.3,0.7
			c0.3,0.8,0,1.5-0.7,1.8c-0.4,0.2-0.9,0.4-1.4,0.6c-0.8,0.3-1.5-0.1-1.8-0.8c-0.1-0.2-0.2-0.5-0.3-0.7c-0.7,0-1.4,0-2.1,0
			c-0.1,0-0.3,0.1-0.3,0.2c-0.1,0.1-0.1,0.3-0.2,0.5c-0.3,0.8-1.1,1.1-1.9,0.8c-0.4-0.1-0.8-0.3-1.2-0.5c-0.8-0.4-1.2-1.1-0.8-2
			c0.1-0.2,0.2-0.5,0.3-0.7c-0.5-0.5-1-1-1.5-1.5c-0.1-0.1-0.3-0.1-0.4-0.1c-0.2,0.1-0.4,0.2-0.7,0.2c-0.7,0.2-1.4-0.1-1.7-0.8
			c-0.2-0.4-0.4-0.8-0.5-1.3c-0.3-0.9,0-1.6,0.8-2c0.2-0.1,0.4-0.2,0.6-0.3c0-0.7,0-1.4,0-2.1c0-0.1-0.1-0.3-0.2-0.3
			c-0.2-0.1-0.4-0.2-0.6-0.3c-0.6-0.3-0.9-1-0.7-1.7c0.2-0.5,0.4-1.1,0.7-1.6c0.3-0.6,1.1-0.9,1.8-0.6c0.6,0.3,1,0.2,1.3-0.3
			c0.3-0.4,0.6-0.8,0.9-1.2C-14.1-154.8-14-154.8-14-154.8z M-5.1-141.4c0.1-0.2,0.2-0.3,0.3-0.5c0.6-0.7,1.3-1.3,1.9-1.9
			c0.3-0.3,0.5-0.4,0.8-0.2c0.3,0.1,0.6,0.3,1,0.4c0.3,0.1,0.4,0.1,0.5-0.2c0.1-0.4,0.3-0.7,0.4-1.1c0.1-0.3,0-0.4-0.2-0.5
			c-0.4-0.1-0.7-0.3-1-0.5c-0.3-0.1-0.4-0.4-0.4-0.7c0-0.9,0-1.8,0-2.7c0-0.4,0.1-0.6,0.5-0.8c1.4-0.6,1.3-0.6,0.7-1.9
			c-0.1-0.3-0.3-0.3-0.5-0.2c-0.3,0.1-0.6,0.2-0.9,0.4c-0.4,0.2-0.7,0.1-1-0.3c-0.6-0.6-1.2-1.2-1.8-1.8c-0.3-0.3-0.4-0.5-0.2-0.9
			c0.1-0.3,0.3-0.6,0.4-1c0-0.1,0-0.4-0.1-0.5c-0.5-0.2-1-0.4-1.5-0.6c-0.2,0.4-0.3,0.7-0.5,1.1c0,0,0,0,0,0
			c-0.1,0.5-0.4,0.6-0.9,0.6c-0.6-0.1-1.2-0.1-1.8-0.1c-1.5,0.2-1.3,0.1-1.8-1.2c-0.2-0.4-0.3-0.5-0.8-0.3c-1.2,0.5-1.2,0.5-0.7,1.7
			c0.2,0.5,0.1,0.8-0.3,1.1c-0.6,0.5-1.2,1.1-1.7,1.7c-0.3,0.3-0.6,0.5-1,0.3c-1.4-0.5-1.4-0.5-1.9,0.9c-0.1,0.3,0,0.4,0.2,0.6
			c0.3,0.1,0.6,0.2,0.9,0.4c0.4,0.1,0.5,0.4,0.5,0.8c0,0.9,0,1.7,0,2.6c0,0.4-0.1,0.7-0.5,0.8c-0.3,0.1-0.7,0.2-1,0.4
			c-0.1,0.1-0.2,0.3-0.2,0.5c0.1,0.4,0.3,0.8,0.5,1.1c0.1,0.1,0.3,0.2,0.5,0.2c0.3-0.1,0.7-0.2,1-0.4c0.4-0.2,0.7-0.1,1,0.3
			c0.6,0.6,1.2,1.2,1.8,1.8c0.3,0.3,0.4,0.6,0.3,1c-0.5,1.4-0.5,1.4,0.9,1.9c0,0,0,0,0,0c0.2-0.1,0.4-0.1,0.5-0.2
			c0.2-0.3,0.3-0.6,0.4-0.9c0.1-0.4,0.4-0.6,0.9-0.5c0.8,0,1.7,0,2.5,0c0.5,0,0.7,0.1,0.9,0.6c0.5,1.3,0.5,1.2,1.8,0.7
			c0.4-0.2,0.4-0.3,0.3-0.7C-4.8-140.6-4.9-141-5.1-141.4z"/>
		<path class="st2" d="M-8.9-143.7c-2.5-0.1-4.3-2-4.3-4.4c0.1-2.3,2.1-4.3,4.4-4.2c2.4,0.1,4.3,2.1,4.2,4.4
			C-4.6-145.5-6.5-143.6-8.9-143.7z M-8.8-144.8c1.7,0,3.1-1.5,3.1-3.2c0-1.8-1.5-3.2-3.2-3.2c-1.7,0-3.1,1.4-3.1,3.2
			C-12-146.2-10.6-144.8-8.8-144.8z"/>
	</g>
	<g>
		<g>
			<line class="st3" x1="-202.4" y1="-143.5" x2="-190.4" y2="-143.5"/>
			<line class="st3" x1="-196.4" y1="-149.5" x2="-196.4" y2="-137.5"/>
		</g>
		<g>
			<line class="st3" x1="-207" y1="-155.5" x2="-201" y2="-155.5"/>
			<line class="st3" x1="-204" y1="-158.5" x2="-204" y2="-152.5"/>
		</g>
		<g>
			<line class="st3" x1="-192" y1="-153.5" x2="-184" y2="-153.5"/>
			<line class="st3" x1="-188" y1="-157.5" x2="-188" y2="-149.5"/>
		</g>
	</g>
	<g>
		<text transform="matrix(1 0 0 1 -306.2412 -121)" style="font-family:'HelveticaNeue'; font-size:12px;">Home</text>
	</g>
	<g>
		<text transform="matrix(1 0 0 1 -217.3872 -121)" class="st2" style="font-family:'HelveticaNeue'; font-size:12px;">Benefits</text>
	</g>
	<g>
		<text transform="matrix(1 0 0 1 -126.2827 -121)" class="st2" style="font-family:'HelveticaNeue'; font-size:12px;">Rewards</text>
	</g>
	<g>
		<text transform="matrix(1 0 0 1 -30.8765 -121)" class="st2" style="font-family:'HelveticaNeue'; font-size:12px;">Settings</text>
	</g>
</g>
<g>
	<g>
		<g>
			<line x1="-626.9" y1="61.3" x2="-476.9" y2="61.3"/>
			<path d="M-476.9,67.5h-150c-3.4,0-6.2-2.8-6.2-6.2s2.8-6.2,6.2-6.2h150c3.4,0,6.2,2.8,6.2,6.2S-473.5,67.5-476.9,67.5z"/>
		</g>
		<g>
			<line x1="-551.9" y1="-13.8" x2="-551.9" y2="136.3"/>
			<path d="M-551.9,142.5c-3.4,0-6.2-2.8-6.2-6.2v-150c0-3.4,2.8-6.2,6.2-6.2c3.4,0,6.2,2.8,6.2,6.2v150
				C-545.7,139.7-548.5,142.5-551.9,142.5z"/>
		</g>
	</g>
	<g>
		<g>
			<line x1="-684.8" y1="-88.8" x2="-609.8" y2="-88.8"/>
			<path d="M-609.8-82.5h-75c-3.4,0-6.2-2.8-6.2-6.2s2.8-6.2,6.2-6.2h75c3.4,0,6.2,2.8,6.2,6.2S-606.3-82.5-609.8-82.5z"/>
		</g>
		<g>
			<line x1="-647.3" y1="-126.3" x2="-647.3" y2="-51.3"/>
			<path d="M-647.3-45c-3.4,0-6.2-2.8-6.2-6.2v-75c0-3.4,2.8-6.2,6.2-6.2s6.2,2.8,6.2,6.2v75C-641-47.8-643.8-45-647.3-45z"/>
		</g>
	</g>
	<g>
		<g>
			<line x1="-497.2" y1="-63.8" x2="-397.2" y2="-63.8"/>
			<path d="M-397.2-57.5h-100c-3.4,0-6.2-2.8-6.2-6.2s2.8-6.2,6.2-6.2h100c3.4,0,6.2,2.8,6.2,6.2S-393.8-57.5-397.2-57.5z"/>
		</g>
		<g>
			<line x1="-447.2" y1="-113.8" x2="-447.2" y2="-13.8"/>
			<path d="M-447.2-7.5c-3.4,0-6.2-2.8-6.2-6.2v-100c0-3.4,2.8-6.2,6.2-6.2c3.4,0,6.2,2.8,6.2,6.2v100
				C-441-10.3-443.8-7.5-447.2-7.5z"/>
		</g>
	</g>
</g>
<path d="M-336.8,117c-10,9.2-18.7,17.3-27.5,25.4c-5.2,4.8-9.1,5.3-12.1,1.8c-2.9-3.4-2.1-7.4,2.6-11.8
	c39.7-36.9,79.4-73.7,119-110.5c3.5-3.2,6.9-6.5,10.4-9.7c10.7-9.8,21.7-9.9,32.4,0c24.9,23.1,49.7,46.2,74.5,69.3
	c17.3,16.1,34.6,32.1,51.9,48.2c1.9,1.7,3.8,3.3,5.4,5.3c2.6,3.1,2.8,6.6-0.2,9.6c-2.9,2.9-6.4,2.9-9.5,0
	c-8.3-7.6-16.6-15.3-24.9-23c-1.3-1.2-2.6-2.4-4.9-4.5c0,3.1,0,4.9,0,6.7c0,38.8,0,77.6,0,116.4c0,19.7-11.3,31-31.1,31.1
	c-51.6,0.1-103.2,0.1-154.9,0c-16.2,0-26.9-7.6-30.3-21.5c-0.8-3.4-0.9-7-0.9-10.5c-0.1-38.5,0-76.9,0-115.4
	C-336.8,122-336.8,120.2-336.8,117z M-190.6,257.3c14.8,0,28.8,0.4,42.8-0.1c9.2-0.3,14-6.3,14-15.8c0-44.4,0.1-88.8-0.1-133.2
	c0-2.5-1.4-5.6-3.2-7.3c-27.8-26.1-55.8-52.1-83.7-78c-6.4-6-8.8-5.9-15.3,0.2c-27.8,25.9-55.7,51.7-83.4,77.6
	c-1.8,1.7-3.3,4.8-3.3,7.2c-0.2,44.2-0.2,88.4-0.1,132.7c0,10.9,5.6,16.5,16.5,16.6c8.1,0.1,16.2,0,24.3,0c5.3,0,10.7,0,16.4,0
	c0-2.5,0-4.3,0-6.2c0-20.1,0-40.2,0-60.3c0-7.1,2.3-9.3,9.4-9.3c18.7,0,37.5,0,56.2,0c7.1,0,9.4,2.2,9.4,9.4c0,19.7,0,39.5,0,59.2
	C-190.6,252.3-190.6,254.5-190.6,257.3z M-251.5,257c15.9,0,31.2,0,46.5,0c0-20.6,0-40.9,0-61.1c-15.7,0-31,0-46.5,0
	C-251.5,216.4-251.5,236.5-251.5,257z"/>
<path d="M149.4,54.5c7.3-13.1,14.4-26,21.8-38.7c1.7-2.9,4.4-5.4,7-7.8c11.3-10.4,25.4-10.9,36.5-0.5c6.3,5.8,12,12.5,16.8,19.6
	C242,43,240.2,54.5,225,69.9c8.7,0,16.5,0,24.4,0c8.2,0,16.4,0.1,24.6,0c4.6,0,6.8,2.1,6.8,6.7c0,16.6,0,33.3,0,49.9
	c0,4.6-2.1,6.8-6.8,6.6c-2.8-0.1-5.6,0-9.1,0c0,3.1,0,5.5,0,7.9c0,46.2,0,92.4,0,138.6c0,15.1-4.9,20-19.8,20.1
	c-37.2,0.1-74.3,0.3-111.5,0.3c-26.7,0-53.4-0.2-80.1-0.4c-12.8-0.1-18.5-5.6-18.5-18.4c0-46.8,0-93.6,0-140.5c0-2.4,0-4.8,0-7.3
	c-2.2-0.1-3.6-0.3-5-0.3c-10.6-0.2-10.8-0.3-10.8-11.3c0-14,0-27.9,0-41.9c0-9.1,0.9-10,9.8-10c15,0,30,0,46.1,0
	c-1.6-1.7-2.5-2.8-3.5-3.7c-9.3-8.7-12-18.4-7.3-30.1c5-12.5,13.4-22.7,24-30.6c11.4-8.5,24.3-6.8,35,3.7c11.7,11.5,18,26.3,24.3,41
	C148.3,51.8,148.9,53.4,149.4,54.5z M113.9,287c0-51.5,0-102.3,0-153.6c-21.1,0-41.8-0.1-62.5,0.2c-1.2,0-3.5,3.1-3.5,4.7
	c-0.2,47.6-0.1,95.3-0.2,142.9c0,4.8,2.1,5.9,6.4,5.8c10.7-0.2,21.4-0.1,32-0.1C95.3,287,104.4,287,113.9,287z M186.4,286.6
	c2.1,0.1,3.9,0.3,5.7,0.3c17.7,0,35.3-0.2,53,0.1c5.8,0.1,7.2-1.9,7.2-7.4c-0.2-46.6-0.1-93.2-0.1-139.8c0-2-0.2-3.9-0.3-6
	c-22.2,0-43.8,0-65.5,0C186.4,185,186.4,235.6,186.4,286.6z M127.4,133.6c0,51.3,0,101.9,0,153.1c13.2,0,25.9-0.3,38.5,0.1
	c5.8,0.2,7.7-1.4,7.6-7.4c-0.2-46.4-0.1-92.8-0.1-139.2c0-2.2-0.2-4.3-0.3-6.6C157.5,133.6,142.6,133.6,127.4,133.6z M32.2,120
	c27.7,0,54.7,0,81.6,0c0-12.6,0-24.8,0-36.8c-27.5,0-54.4,0-81.6,0C32.2,95.6,32.2,107.7,32.2,120z M267.8,83.1
	c-27.6,0-54.3,0-81.3,0c0,12.6,0,24.7,0,36.9c27.4,0,54.3,0,81.3,0C267.8,107.4,267.8,95.4,267.8,83.1z M159.4,69
	c5.3,0,9.8,0.2,14.2,0c14.8-0.7,29.5-2.5,42.7-9.9c9-5,11.7-12.1,6.6-21.1c-3.9-6.8-9.1-13.2-14.5-18.9c-8-8.5-15.2-8.4-23.3,0
	C172.1,33.1,165.9,50.7,159.4,69z M140.7,69c-5.8-17.6-12.4-33.8-23.5-47.8c-1.4-1.7-3.2-3.2-4.9-4.6c-6.1-4.8-12.2-5.2-17.8,0.2
	c-6,5.8-11.7,12.2-16.2,19.2c-6.7,10.6-4,18.5,7.2,24.1C102.6,68.4,121,69.3,140.7,69z M173.4,120.1c0-8.7,0-16.7,0-24.6
	c0-12.7,0-12.7-12.4-12.7c-11.2,0-22.4,0-33.6,0c0,13,0,25.1,0,37.3C142.8,120.1,157.7,120.1,173.4,120.1z"/>
</svg>
